<mxfile host="app.diagrams.net" modified="2024-03-29T17:27:36.496Z" agent="Mozilla/5.0 (X11; Linux x86_64; rv:120.0) Gecko/20100101 Firefox/120.0" etag="0Tw-7NgERbWG42OJZksd" version="22.1.18" type="github">
  <diagram id="C5RBs43oDa-KdzZeNtuy" name="Page-1">
    <mxGraphModel dx="555" dy="350" grid="1" gridSize="10" guides="1" tooltips="1" connect="1" arrows="1" fold="1" page="1" pageScale="1" pageWidth="827" pageHeight="1169" math="0" shadow="0">
      <root>
        <mxCell id="WIyWlLk6GJQsqaUBKTNV-0" />
        <mxCell id="WIyWlLk6GJQsqaUBKTNV-1" parent="WIyWlLk6GJQsqaUBKTNV-0" />
        <mxCell id="n6dP2o1GBS35AuHvHAh_-1" value="" style="shape=image;imageAspect=0;aspect=fixed;verticalLabelPosition=bottom;verticalAlign=top;image=https://x24.ems.host/_matrix/media/v3/download/matrix.org/eyHGsnGGhwuWLCtLiDQzUKqu;" vertex="1" parent="WIyWlLk6GJQsqaUBKTNV-1">
          <mxGeometry x="190" y="400" width="520" height="198" as="geometry" />
        </mxCell>
        <mxCell id="n6dP2o1GBS35AuHvHAh_-2" value="" style="endArrow=none;html=1;rounded=0;strokeColor=#FF8000;strokeWidth=4;" edge="1" parent="WIyWlLk6GJQsqaUBKTNV-1">
          <mxGeometry width="50" height="50" relative="1" as="geometry">
            <mxPoint x="280" y="425" as="sourcePoint" />
            <mxPoint x="280" y="395" as="targetPoint" />
          </mxGeometry>
        </mxCell>
        <mxCell id="n6dP2o1GBS35AuHvHAh_-5" value="" style="endArrow=none;html=1;rounded=0;strokeColor=#FF8000;strokeWidth=4;" edge="1" parent="WIyWlLk6GJQsqaUBKTNV-1">
          <mxGeometry width="50" height="50" relative="1" as="geometry">
            <mxPoint x="290" y="395" as="sourcePoint" />
            <mxPoint x="270.0008695652175" y="395" as="targetPoint" />
          </mxGeometry>
        </mxCell>
        <mxCell id="n6dP2o1GBS35AuHvHAh_-6" value="" style="endArrow=none;html=1;rounded=0;strokeColor=#FF8000;strokeWidth=4;" edge="1" parent="WIyWlLk6GJQsqaUBKTNV-1">
          <mxGeometry width="50" height="50" relative="1" as="geometry">
            <mxPoint x="290" y="385" as="sourcePoint" />
            <mxPoint x="270.0008695652175" y="385" as="targetPoint" />
          </mxGeometry>
        </mxCell>
        <mxCell id="n6dP2o1GBS35AuHvHAh_-7" value="" style="endArrow=none;html=1;rounded=0;strokeColor=#FF8000;strokeWidth=4;" edge="1" parent="WIyWlLk6GJQsqaUBKTNV-1">
          <mxGeometry width="50" height="50" relative="1" as="geometry">
            <mxPoint x="280" y="385" as="sourcePoint" />
            <mxPoint x="280" y="355" as="targetPoint" />
          </mxGeometry>
        </mxCell>
        <mxCell id="n6dP2o1GBS35AuHvHAh_-8" value="" style="triangle;whiteSpace=wrap;html=1;rotation=-90;strokeColor=#FF8000;strokeWidth=4;" vertex="1" parent="WIyWlLk6GJQsqaUBKTNV-1">
          <mxGeometry x="276" y="340" width="10" height="20" as="geometry" />
        </mxCell>
      </root>
    </mxGraphModel>
  </diagram>
</mxfile>
